<svg width="64" height="64" viewBox="0 0 64 64" xmlns="http://www.w3.org/2000/svg">
  <!-- Red Scientific network/graph icon for system tray -->
  <!-- Crimson Red: #DC143C -->

  <!-- Connecting lines (drawn first so nodes appear on top) -->
  <path d="M12,32 L20,18 L32,10 L44,14 L52,24 L52,40 L44,50 L32,54 L20,46 L12,32 Z"
        fill="none" stroke="#DC143C" stroke-width="3" stroke-linecap="round" stroke-linejoin="round"/>

  <!-- Internal connecting lines -->
  <path d="M20,18 L32,32 L44,14" fill="none" stroke="#DC143C" stroke-width="2.5" stroke-linecap="round"/>
  <path d="M12,32 L32,32 L52,40" fill="none" stroke="#DC143C" stroke-width="2.5" stroke-linecap="round"/>
  <path d="M32,54 L34,32 L52,24" fill="none" stroke="#DC143C" stroke-width="2.5" stroke-linecap="round"/>

  <!-- Outer nodes -->
  <circle cx="12" cy="32" r="4" fill="#DC143C"/>
  <circle cx="20" cy="18" r="4.5" fill="#DC143C"/>
  <circle cx="32" cy="10" r="5" fill="#DC143C"/>
  <circle cx="44" cy="14" r="4.5" fill="#DC143C"/>
  <circle cx="52" cy="24" r="4" fill="#DC143C"/>
  <circle cx="52" cy="40" r="4" fill="#DC143C"/>
  <circle cx="44" cy="50" r="4.5" fill="#DC143C"/>
  <circle cx="32" cy="54" r="4" fill="#DC143C"/>
  <circle cx="20" cy="46" r="3.5" fill="#DC143C"/>

  <!-- Inner nodes -->
  <circle cx="34" cy="32" r="6" fill="#DC143C" opacity="0.85"/>
  <circle cx="44" cy="30" r="4" fill="#DC143C" opacity="0.85"/>
  <circle cx="24" cy="34" r="4" fill="#DC143C" opacity="0.85"/>
</svg>
