<svg xmlns="http://www.w3.org/2000/svg" viewBox="0 0 120 40" width="120" height="40">
  <g fill="currentColor">
    <path d="M17.3 8.5h4.2v9.2h9.5V8.5h4.2v23h-4.2v-10h-9.5v10h-4.2v-23z"/>
    <path d="M52 7.8c6.5 0 11.8 5.3 11.8 11.8S58.5 31.4 52 31.4s-11.8-5.3-11.8-11.8S45.5 7.8 52 7.8zm0 19.6c4.3 0 7.8-3.5 7.8-7.8s-3.5-7.8-7.8-7.8-7.8 3.5-7.8 7.8 3.5 7.8 7.8 7.8z"/>
    <path d="M67.5 8.5h4l9.8 15.2V8.5h4v23h-4L71.5 16v15.5h-4v-23z"/>
    <path d="M89.3 8.5h8.5c6 0 10.8 4.8 10.8 10.8v1.4c0 6-4.8 10.8-10.8 10.8h-8.5v-23zm4.2 19h4.3c3.7 0 6.6-2.9 6.6-6.6v-1.8c0-3.7-2.9-6.6-6.6-6.6h-4.3v15z"/>
    <path d="M112 8.5h4.2l7.8 23h-4.4l-1.6-5h-7.8l-1.6 5h-4.4l7.8-23zm4.6 14.5l-2.5-8-2.5 8h5z"/>
  </g>
</svg>