<svg xmlns="http://www.w3.org/2000/svg" viewBox="0 0 120 40" width="120" height="40">
  <g fill="currentColor">
    <path d="M24.5 5C13.5 5 5 12.5 5 20s8.5 15 19.5 15S44 27.5 44 20 35.5 5 24.5 5zm12.2 5.7c.4 1.6-1.5 3.7-7.7 4.4-.4-4.2-1.7-7.7-3.7-8.5 2.8.1 5.4.6 7.7 1.4 2.1.8 3.5 1.8 3.7 2.7zm-9.1 7.5c0 5.3-1.6 7.5-3.1 7.5s-3.1-2.2-3.1-7.5v-.1c1 .1 2 .1 3.1.1s2.1 0 3.1-.1v.1zm-3.1-3c-1 0-2 0-2.9-.1.5-3.5 1.7-5.5 2.9-5.5s2.4 2 2.9 5.5c-.9.1-1.9.1-2.9.1zM12.3 10.7c.2-.9 1.5-1.9 3.7-2.7 2.3-.8 4.9-1.3 7.7-1.4-2.1.7-3.3 4.3-3.7 8.5-6.2-.7-8.1-2.8-7.7-4.4zM7.8 17.8c0-2.2.8-4.2 2.1-5.8.2 3 4.2 5.2 9.9 6v.2c0 7.2 1.8 11 3.9 11.8-8.8-.3-15.9-5.7-15.9-12.2zm17.4 12.2c2.1-.8 3.9-4.9 3.9-11.8v-.2c5.7-.8 9.7-3 9.9-6 1.3 1.6 2.1 3.5 2.1 5.8 0 6.5-7.1 11.9-15.9 12.2z"/>
    <path d="M54.2 10.5h-5v11.9h3.3V10.5h5v-2.8h-10v2.8h3.4zm14.3-2.8c-4.3 0-7.8 3.5-7.8 7.8s3.5 7.8 7.8 7.8 7.8-3.5 7.8-7.8-3.5-7.8-7.8-7.8zm0 12.7c-2.4 0-4.4-2.2-4.4-4.9s2-4.9 4.4-4.9 4.4 2.2 4.4 4.9-2 4.9-4.4 4.9zm18.8-12.7l-3.8 6-3.8-6h-3.8l5.9 9.2v5.5h3.3v-5.5l5.9-9.2h-3.7zm8.3 0c-4.3 0-7.8 3.5-7.8 7.8s3.5 7.8 7.8 7.8 7.8-3.5 7.8-7.8-3.5-7.8-7.8-7.8zm0 12.7c-2.4 0-4.4-2.2-4.4-4.9s2-4.9 4.4-4.9 4.4 2.2 4.4 4.9-2 4.9-4.4 4.9zm17-12.7h-5v2.8h5v11.9h3.3V10.5h4.7V7.7h-8z"/>
  </g>
</svg>