<svg xmlns="http://www.w3.org/2000/svg" viewBox="0 0 40 40" width="40" height="40">
  <path fill="currentColor" d="M20 2C10.6 2 3 9.6 3 19s7.6 17 17 17 17-7.6 17-17S29.4 2 20 2zm13.8 6.4c.5 1.8-1.7 4.2-8.7 5-.5-4.7-1.9-8.7-4.2-9.6 3.2.1 6.1.7 8.7 1.6 2.4.9 3.9 2.1 4.2 3zm-10.3 8.5c0 6-1.8 8.5-3.5 8.5s-3.5-2.5-3.5-8.5v-.1c1.1.1 2.3.2 3.5.2s2.4-.1 3.5-.2v.1zm-3.5-3.4c-1.2 0-2.3-.1-3.3-.1.6-3.9 1.9-6.2 3.3-6.2s2.7 2.3 3.3 6.2c-1 0-2.1.1-3.3.1zM6.2 8.4c.3-1 1.7-2.1 4.2-3 2.6-.9 5.5-1.5 8.7-1.6-2.3.9-3.7 4.9-4.2 9.6-7-.8-9.2-3.2-8.7-5zM3.2 16.4c0-2.5.9-4.8 2.4-6.6.2 3.4 4.8 5.9 11.2 6.8v.2c0 8.2 2.1 12.5 4.4 13.4-9.9-.3-18-6.5-18-13.8zm19.6 13.8c2.4-.9 4.4-5.6 4.4-13.4v-.2c6.4-.9 11-3.4 11.2-6.8 1.5 1.8 2.4 4 2.4 6.6 0 7.3-8 13.5-18 13.8z"/>
</svg>